<svg width="150" height="150" viewBox="0 0 150 150" fill="none" xmlns="http://www.w3.org/2000/svg">
<circle cx="75" cy="75" r="74.5" stroke="white"/>
<path d="M59.25 30C55.6696 30 52.2358 31.4223 49.7041 33.9541C47.1723 36.4858 45.75 39.9196 45.75 43.5C45.75 47.0804 47.1723 50.5142 49.7041 53.0459C52.2358 55.5777 55.6696 57 59.25 57H90.75C94.3304 57 97.7642 55.5777 100.296 53.0459C102.828 50.5142 104.25 47.0804 104.25 43.5C104.25 39.9196 102.828 36.4858 100.296 33.9541C97.7642 31.4223 94.3304 30 90.75 30H59.25ZM90.75 61.5C87.1696 61.5 83.7358 62.9223 81.2041 65.4541C78.6723 67.9858 77.25 71.4196 77.25 75C77.25 78.5804 78.6723 82.0142 81.2041 84.5459C83.7358 87.0777 87.1696 88.5 90.75 88.5C94.3304 88.5 97.7642 87.0777 100.296 84.5459C102.828 82.0142 104.25 78.5804 104.25 75C104.25 71.4196 102.828 67.9858 100.296 65.4541C97.7642 62.9223 94.3304 61.5 90.75 61.5ZM45.75 75C45.75 71.4196 47.1723 67.9858 49.7041 65.4541C52.2358 62.9223 55.6696 61.5 59.25 61.5H72.75V88.5H59.25C55.6696 88.5 52.2358 87.0777 49.7041 84.5459C47.1723 82.0142 45.75 78.5804 45.75 75ZM59.25 93C56.58 93 53.9699 93.7918 51.7498 95.2751C49.5297 96.7586 47.7994 98.867 46.7776 101.334C45.7558 103.801 45.4885 106.515 46.0094 109.134C46.5303 111.752 47.8161 114.158 49.7041 116.046C51.5921 117.934 53.9975 119.22 56.6163 119.741C59.235 120.261 61.9494 119.994 64.4162 118.972C66.883 117.951 68.9914 116.22 70.4748 114C71.9582 111.78 72.75 109.17 72.75 106.5V93H59.25Z" fill="#0984E3"/>
</svg>
