<svg width="150" height="150" viewBox="0 0 150 150" fill="none" xmlns="http://www.w3.org/2000/svg">
<path d="M73.6231 30C67.7298 30 61.8942 31.1929 56.4495 33.5105C51.0047 35.8281 46.0576 39.225 41.8903 43.5074C33.4743 52.1561 28.7462 63.8862 28.7462 76.1172C28.7462 96.501 41.6259 113.795 59.442 119.929C61.6858 120.298 62.4039 118.868 62.4039 117.623V109.829C49.973 112.596 47.3252 103.649 47.3252 103.649C45.2609 98.2996 42.3439 96.87 42.3439 96.87C38.2601 94.0107 42.658 94.1029 42.658 94.1029C47.1457 94.4258 49.5242 98.853 49.5242 98.853C53.4285 105.863 60.0254 103.788 62.5834 102.681C62.9873 99.6831 64.1541 97.654 65.4106 96.501C55.448 95.3481 44.9916 91.382 44.9916 73.8114C44.9916 68.6923 46.697 64.5879 49.614 61.3136C49.1652 60.1607 47.5945 55.3645 50.0627 49.1386C50.0627 49.1386 53.8324 47.8935 62.4039 53.8426C65.9492 52.828 69.8086 52.3207 73.6231 52.3207C77.4376 52.3207 81.297 52.828 84.8423 53.8426C93.4138 47.8935 97.1835 49.1386 97.1835 49.1386C99.6517 55.3645 98.081 60.1607 97.6322 61.3136C100.549 64.5879 102.255 68.6923 102.255 73.8114C102.255 91.4281 91.7534 95.302 81.7458 96.4549C83.3614 97.8845 84.8423 100.698 84.8423 104.987V117.623C84.8423 118.868 85.5603 120.344 87.8491 119.929C105.665 113.749 118.5 96.501 118.5 76.1172C118.5 70.061 117.339 64.0641 115.084 58.4689C112.829 52.8737 109.523 47.7898 105.356 43.5074C101.189 39.225 96.2414 35.8281 90.7967 33.5105C85.352 31.1929 79.5164 30 73.6231 30Z" fill="#0984E3"/>
<circle cx="75" cy="75" r="74.5" stroke="white"/>
</svg>
