<svg width="50" height="50" viewBox="0 0 50 50" fill="none" xmlns="http://www.w3.org/2000/svg">
<circle cx="25" cy="25" r="25" fill="#CCCCCC"/>
<path d="M24.959 10C22.9945 10 21.0493 10.3976 19.2344 11.1702C17.4195 11.9427 15.7704 13.075 14.3814 14.5025C11.576 17.3854 10 21.2954 10 25.3724C10 32.167 14.2932 37.9317 20.2319 39.9762C20.9799 40.0992 21.2192 39.6226 21.2192 39.2076V36.6096C17.0756 37.532 16.193 34.5497 16.193 34.5497C15.5049 32.7665 14.5326 32.29 14.5326 32.29C13.1713 31.3369 14.6373 31.3676 14.6373 31.3676C16.1332 31.4752 16.926 32.951 16.926 32.951C18.2274 35.2876 20.4264 34.5958 21.2791 34.2269C21.4137 33.2277 21.8026 32.5513 22.2215 32.167C18.9006 31.7827 15.4151 30.4607 15.4151 24.6038C15.4151 22.8974 15.9836 21.5293 16.9559 20.4379C16.8063 20.0536 16.2828 18.4548 17.1055 16.3795C17.1055 16.3795 18.3621 15.9645 21.2192 17.9475C22.401 17.6093 23.6874 17.4402 24.959 17.4402C26.2305 17.4402 27.5169 17.6093 28.6987 17.9475C31.5559 15.9645 32.8124 16.3795 32.8124 16.3795C33.6352 18.4548 33.1116 20.0536 32.962 20.4379C33.9343 21.5293 34.5028 22.8974 34.5028 24.6038C34.5028 30.476 31.0024 31.7673 27.6665 32.1516C28.2051 32.6282 28.6987 33.5659 28.6987 34.9955V39.2076C28.6987 39.6226 28.938 40.1145 29.701 39.9762C35.6397 37.9163 39.9179 32.167 39.9179 25.3724C39.9179 23.3537 39.531 21.3547 38.7792 19.4896C38.0275 17.6246 36.9256 15.9299 35.5365 14.5025C34.1475 13.075 32.4984 11.9427 30.6835 11.1702C28.8686 10.3976 26.9234 10 24.959 10Z" fill="black"/>
</svg>
