<svg width="150" height="150" viewBox="0 0 150 150" fill="none" xmlns="http://www.w3.org/2000/svg">
<g clip-path="url(#clip0_1_110)">
<path d="M107.842 112.311L85.968 106.302L81.0934 52.2021H134.657L129.777 106.293L107.842 112.311Z" fill="#264DE4"/>
<path d="M125.599 102.849L129.769 56.6254H107.875V107.711L125.599 102.849Z" fill="#2965F1"/>
<path d="M92.2684 76.6903L92.8693 83.3254H107.875V76.6903H92.2684ZM91.0607 63.2607L91.6702 69.8958H107.875V63.2607H91.0607ZM107.875 93.9224L107.846 93.9301L100.378 91.9348L99.9002 86.6431H93.1689L94.1083 97.0612L107.844 100.834L107.875 100.826V93.9224Z" fill="#070909"/>
<path d="M93.6992 37.5H101.821V40.8607H97.0955V44.2213H101.821V47.5818H93.6992V37.5ZM103.445 37.5H111.566V40.4223H106.841V41.0067H111.566V47.728H103.445V44.6593H108.17V44.0749H103.445L103.445 37.5ZM113.191 37.5H121.312V40.4223H116.587V41.0067H121.312V47.728H113.191V44.6593H117.916V44.0749H113.191V37.5H113.191Z" fill="#2965F1"/>
<path d="M123.439 76.6903L124.649 63.2607H107.852V69.8958H117.301L116.69 76.6903H107.852V83.3254H116.109L115.33 91.9307L107.852 93.9281V100.831L121.598 97.0612L121.699 95.9402L123.275 78.472L123.439 76.6903Z" fill="#070909"/>
</g>
<path d="M21.4945 37.5H24.8729V40.8378H27.9641V37.5H31.3425V47.6041H27.9641V44.2225H24.8729V47.6041H21.4976L21.4945 37.5ZM35.7826 40.8503H32.8101V37.5H42.1367V40.8503H39.161V47.6041H35.7826V40.8503ZM43.6167 37.5H47.1388L49.3057 41.0502L51.4695 37.5H54.9916V47.6041H51.6288V42.5958L49.3057 46.1896H49.2464L46.9202 42.5989V47.6041H43.6167V37.5ZM56.6714 37.5H60.053V44.2662H64.799V47.6072H56.6714V37.5Z" fill="#0984E3"/>
<path fill-rule="evenodd" clip-rule="evenodd" d="M21.3884 106.48L15 52.2908H71.2031L64.8116 106.474L43.0703 112.5L21.3884 106.48ZM34.3058 76.8173L33.7 70.0104H59.132L59.7252 63.366H26.4405L28.2327 83.4649H51.2666L50.4954 92.0827L43.0828 94.0872H43.0766L35.6765 92.0889L35.2019 86.7902H28.5262L29.4567 97.2253L43.0703 101.003L56.7059 97.2253L58.367 78.6033L58.5293 76.8204H34.3058V76.8173Z" fill="#0984E3"/>
<circle cx="75" cy="75" r="74.5" stroke="white"/>
<defs>
<clipPath id="clip0_1_110">
<rect width="53.75" height="75" fill="white" transform="translate(81 37.5)"/>
</clipPath>
</defs>
</svg>
