<svg width="60" height="60" viewBox="0 0 60 60" fill="none" xmlns="http://www.w3.org/2000/svg">
<circle cx="30" cy="30" r="30" fill="#CCCCCC"/>
<path d="M21.6 10H38.4C44.8 10 50 15.2 50 21.6V38.4C50 41.4765 48.7779 44.427 46.6024 46.6024C44.427 48.7779 41.4765 50 38.4 50H21.6C15.2 50 10 44.8 10 38.4V21.6C10 18.5235 11.2221 15.573 13.3976 13.3976C15.573 11.2221 18.5235 10 21.6 10ZM21.2 14C19.2904 14 17.4591 14.7586 16.1088 16.1088C14.7586 17.4591 14 19.2904 14 21.2V38.8C14 42.78 17.22 46 21.2 46H38.8C40.7096 46 42.5409 45.2414 43.8912 43.8912C45.2414 42.5409 46 40.7096 46 38.8V21.2C46 17.22 42.78 14 38.8 14H21.2ZM40.5 17C41.163 17 41.7989 17.2634 42.2678 17.7322C42.7366 18.2011 43 18.837 43 19.5C43 20.163 42.7366 20.7989 42.2678 21.2678C41.7989 21.7366 41.163 22 40.5 22C39.837 22 39.2011 21.7366 38.7322 21.2678C38.2634 20.7989 38 20.163 38 19.5C38 18.837 38.2634 18.2011 38.7322 17.7322C39.2011 17.2634 39.837 17 40.5 17ZM30 20C32.6522 20 35.1957 21.0536 37.0711 22.9289C38.9464 24.8043 40 27.3478 40 30C40 32.6522 38.9464 35.1957 37.0711 37.0711C35.1957 38.9464 32.6522 40 30 40C27.3478 40 24.8043 38.9464 22.9289 37.0711C21.0536 35.1957 20 32.6522 20 30C20 27.3478 21.0536 24.8043 22.9289 22.9289C24.8043 21.0536 27.3478 20 30 20ZM30 24C28.4087 24 26.8826 24.6321 25.7574 25.7574C24.6321 26.8826 24 28.4087 24 30C24 31.5913 24.6321 33.1174 25.7574 34.2426C26.8826 35.3679 28.4087 36 30 36C31.5913 36 33.1174 35.3679 34.2426 34.2426C35.3679 33.1174 36 31.5913 36 30C36 28.4087 35.3679 26.8826 34.2426 25.7574C33.1174 24.6321 31.5913 24 30 24Z" fill="black"/>
</svg>
