<svg width="150" height="150" viewBox="0 0 150 150" fill="none" xmlns="http://www.w3.org/2000/svg">
<circle cx="75" cy="75" r="74.5" stroke="white"/>
<path d="M31.5 28.5V118.5H121.5V28.5H31.5ZM80.4793 98.6904C80.4793 107.449 75.3364 111.448 67.8439 111.448C61.0746 111.448 57.1564 107.954 55.1475 103.714L62.0389 99.555C63.3664 101.905 64.5718 103.894 67.4839 103.894C70.2546 103.894 72.0225 102.808 72.0225 98.5714V69.8229H80.4793V98.6904ZM100.485 111.448C92.6293 111.448 87.5475 107.713 85.0757 102.808L91.9671 98.8318C93.7768 101.786 96.1457 103.975 100.305 103.975C103.799 103.975 106.052 102.226 106.052 99.7961C106.052 96.9032 103.76 95.8779 99.8839 94.1711L97.7754 93.2679C91.6682 90.6771 87.6311 87.4018 87.6311 80.5104C87.6311 74.1621 92.4718 69.3407 100.006 69.3407C105.39 69.3407 109.247 71.2082 112.021 76.11L105.432 80.3304C103.985 77.7396 102.417 76.7143 99.9868 76.7143C97.5182 76.7143 95.9496 78.2829 95.9496 80.3304C95.9496 82.8632 97.5182 83.8854 101.154 85.4732L103.262 86.3764C110.456 89.4493 114.493 92.6057 114.493 99.6739C114.493 107.269 108.505 111.445 100.488 111.445L100.485 111.448Z" fill="#0984E3"/>
</svg>
