<svg width="150" height="150" viewBox="0 0 150 150" fill="none" xmlns="http://www.w3.org/2000/svg">
<circle cx="75" cy="75" r="74.5" stroke="white"/>
<path d="M75 30C99.75 30 120 50.25 120 75C120 99.75 99.75 120 75 120C50.25 120 30 99.75 30 75C30 50.25 50.25 30 75 30ZM66 89.9062C66.5625 92.4375 66.5625 94.6875 66 96.6562L65.7188 97.5C65.7188 97.7812 65.4375 98.0625 65.4375 98.0625C64.875 99.1875 64.3125 100.031 63.4688 101.156C60.9375 103.969 57.2812 105.094 55.5938 104.25C53.9062 103.406 54.75 99.1875 57.8438 96.0938C61.2188 92.7188 65.7188 90.4688 65.7188 90.4688L66 89.9062ZM103.125 49.125C101.156 41.25 87.9375 38.4375 75.2812 42.9375C67.9688 45.75 59.8125 49.9688 53.9062 55.3125C46.875 61.7812 46.0312 67.4062 46.3125 69.6562C48 77.8125 59.25 83.4375 64.0312 87.375C62.625 87.9375 52.5 93 50.25 98.3438C47.7188 103.969 50.5312 107.906 52.5 108.188C58.4062 109.875 64.5938 106.781 67.6875 102C70.7812 97.2188 70.5 91.3125 69.0938 88.2188C71.2816 87.5431 73.6073 87.4462 75.8438 87.9375C83.7188 88.7812 85.4062 93.8437 84.8438 95.8125C84.2812 97.7812 82.875 98.9062 82.3125 99.4688C81.75 99.75 81.4688 100.031 81.75 100.031C81.75 100.312 82.0312 100.312 82.5938 100.312C83.1562 100.312 86.8125 98.625 86.8125 94.6875C87.0938 89.9062 82.3125 84.5625 74.1562 84.5625C70.7812 84.5625 68.5312 84.8438 67.125 85.4062C67.125 85.125 66.8438 85.125 66.8438 85.125C61.7812 79.7812 52.5 75.8438 52.7812 68.5312C52.7812 66 53.9062 58.9688 70.7812 50.5312C84.5625 43.5 95.8125 45.4688 97.7812 49.6875C100.594 55.5938 91.875 66.8438 77.5312 68.5312C71.9062 69.0938 69.0938 67.125 68.5312 66.2812C67.6875 65.4375 67.6875 65.4375 67.4062 65.4375C66.8438 65.7188 67.125 66.2812 67.4062 66.8438C67.9688 67.9688 69.6562 69.9375 72.75 71.0625C75.2812 71.9062 81.75 72.4688 89.625 69.375C98.3438 66 105.094 56.7188 103.125 48.8438V49.125Z" fill="#0984E3"/>
</svg>
