<svg width="60" height="60" viewBox="0 0 60 60" fill="none" xmlns="http://www.w3.org/2000/svg">
<circle cx="30" cy="30" r="30" fill="#CCCCCC"/>
<path d="M30 10C18.96 10 10 18.96 10 30C10 41.04 18.96 50 30 50C41.04 50 50 41.04 50 30C50 18.96 41.04 10 30 10ZM39.28 23.6C38.98 26.76 37.68 34.44 37.02 37.98C36.74 39.48 36.18 39.98 35.66 40.04C34.5 40.14 33.62 39.28 32.5 38.54C30.74 37.38 29.74 36.66 28.04 35.54C26.06 34.24 27.34 33.52 28.48 32.36C28.78 32.06 33.9 27.4 34 26.98C34.0139 26.9164 34.012 26.8503 33.9946 26.7876C33.9772 26.7249 33.9447 26.6673 33.9 26.62C33.78 26.52 33.62 26.56 33.48 26.58C33.3 26.62 30.5 28.48 25.04 32.16C24.24 32.7 23.52 32.98 22.88 32.96C22.16 32.94 20.8 32.56 19.78 32.22C18.52 31.82 17.54 31.6 17.62 30.9C17.66 30.54 18.16 30.18 19.1 29.8C24.94 27.26 28.82 25.58 30.76 24.78C36.32 22.46 37.46 22.06 38.22 22.06C38.38 22.06 38.76 22.1 39 22.3C39.2 22.46 39.26 22.68 39.28 22.84C39.26 22.96 39.3 23.32 39.28 23.6Z" fill="black"/>
</svg>
