<svg width="150" height="150" viewBox="0 0 150 150" fill="none" xmlns="http://www.w3.org/2000/svg">
<path d="M98.9062 30H51.0938C39.444 30 30 39.444 30 51.0938V98.9062C30 110.556 39.444 120 51.0938 120H98.9062C110.556 120 120 110.556 120 98.9062V51.0938C120 39.444 110.556 30 98.9062 30Z" fill="#0984E3"/>
<path d="M93.9844 47.5781H106.641L75 102.158L43.3594 47.5781H67.5645L75 60.2344L82.2773 47.5781H93.9844Z" fill="#41B883"/>
<path d="M43.3594 47.5781L75 102.158L106.641 47.5781H93.9844L75 80.3262L55.8574 47.5781H43.3594Z" fill="#41B883"/>
<path d="M55.8574 47.5781L75 80.4844L93.9844 47.5781H82.2773L75 60.2344L67.5645 47.5781H55.8574Z" fill="white"/>
<circle cx="75" cy="75" r="74.5" stroke="white"/>
</svg>
